<svg width="45" height="45" viewBox="0 0 45 45" fill="none" xmlns="http://www.w3.org/2000/svg">
<path d="M0 18.9844C0 16.2675 2.205 14.0625 4.92188 14.0625H9.14062C9.70007 14.0625 10.2366 14.2847 10.6322 14.6803C11.0278 15.0759 11.25 15.6124 11.25 16.1719C11.25 16.7313 11.0278 17.2678 10.6322 17.6634C10.2366 18.059 9.70007 18.2812 9.14062 18.2812H4.92188C4.73539 18.2812 4.55655 18.3553 4.42469 18.4872C4.29283 18.6191 4.21875 18.7979 4.21875 18.9844V40.0781C4.21875 40.4663 4.53375 40.7812 4.92188 40.7812H26.0156C26.2021 40.7812 26.3809 40.7072 26.5128 40.5753C26.6447 40.4434 26.7188 40.2646 26.7188 40.0781V35.8594C26.7188 35.2999 26.941 34.7634 27.3366 34.3678C27.7322 33.9722 28.2687 33.75 28.8281 33.75C29.3876 33.75 29.9241 33.9722 30.3197 34.3678C30.7153 34.7634 30.9375 35.2999 30.9375 35.8594V40.0781C30.9375 41.3835 30.4189 42.6354 29.4959 43.5584C28.5729 44.4814 27.321 45 26.0156 45H4.92188C3.61651 45 2.36461 44.4814 1.44158 43.5584C0.518553 42.6354 0 41.3835 0 40.0781V18.9844Z" fill="#FFAE00"/>
<path d="M14.0625 4.92188C14.0625 2.205 16.2675 0 18.9844 0H40.0781C42.795 0 45 2.205 45 4.92188V26.0156C45 27.321 44.4814 28.5729 43.5584 29.4959C42.6354 30.4189 41.3835 30.9375 40.0781 30.9375H18.9844C17.679 30.9375 16.4271 30.4189 15.5041 29.4959C14.5811 28.5729 14.0625 27.321 14.0625 26.0156V4.92188ZM18.9844 4.21875C18.7979 4.21875 18.6191 4.29283 18.4872 4.42469C18.3553 4.55655 18.2812 4.73539 18.2812 4.92188V26.0156C18.2812 26.4037 18.5963 26.7188 18.9844 26.7188H40.0781C40.2646 26.7188 40.4434 26.6447 40.5753 26.5128C40.7072 26.3809 40.7812 26.2021 40.7812 26.0156V4.92188C40.7812 4.73539 40.7072 4.55655 40.5753 4.42469C40.4434 4.29283 40.2646 4.21875 40.0781 4.21875H18.9844Z" fill="#FFAE00"/>
</svg>
